<?xml version="1.0" encoding="UTF-8" standalone="no"?>
<!-- Created with Inkscape (http://www.inkscape.org/) -->

<svg
   width="311.48727mm"
   height="43.106003mm"
   viewBox="0 0 311.48765 43.106002"
   version="1.1"
   id="svg5"
   xml:space="preserve"
   xmlns="http://www.w3.org/2000/svg"
   xmlns:svg="http://www.w3.org/2000/svg"><defs
     id="defs2" /><g
     id="layer1"
     transform="translate(-55.221436,-98.483041)"><g
       id="g546"
       transform="translate(15.795139,33.412795)"><text
         xml:space="preserve"
         style="font-size:34.8322px;font-family:'DIN Alternate';-inkscape-font-specification:'DIN Alternate';fill:#000000;stroke-width:0.18142"
         x="224.30707"
         y="101.74878"
         id="text113"><tspan
           style="text-align:center;text-anchor:middle;stroke-width:0.18142"
           x="224.30707"
           y="101.74878"
           id="tspan509">Mi Portafolio UBB</tspan></text><g
         id="g507"
         transform="matrix(0.09965542,0,0,0.09965542,39.426297,61.111209)"><g
           id="g428">
	<rect
   x="176.552"
   y="75.033997"
   style="fill:#464655"
   width="17.655001"
   height="44.138"
   id="rect424" />
	<rect
   x="317.793"
   y="75.033997"
   style="fill:#464655"
   width="17.655001"
   height="44.138"
   id="rect426" />
</g><path
           style="fill:#aa6955"
           d="M 467.862,472.276 H 44.138 c -14.626,0 -26.483,-11.857 -26.483,-26.483 V 278.069 h 476.69 v 167.724 c 0,14.626 -11.857,26.483 -26.483,26.483 z"
           id="path430" /><path
           style="fill:#9b5f50"
           d="m 494.345,318.214 v -29.693 c -21.6,35.998 -60.894,60.169 -105.931,60.169 H 123.586 c -45.037,0 -84.331,-24.171 -105.931,-60.169 v 29.693 c 25.903,29.433 63.733,48.131 105.931,48.131 h 264.828 c 42.198,0 80.027,-18.698 105.931,-48.131 z"
           id="path432" /><path
           style="fill:#707487"
           d="m 335.448,87.462 c -1.987,0 -4.009,-0.337 -5.983,-1.047 -20.366,-7.341 -46.456,-11.38 -73.465,-11.38 -27.009,0 -53.099,4.039 -73.465,11.38 -9.155,3.297 -19.288,-1.457 -22.595,-10.63 -3.302,-9.173 1.452,-19.288 10.63,-22.595 24.452,-8.81 53.996,-13.465 85.431,-13.465 31.435,0 60.979,4.655 85.431,13.465 9.176,3.306 13.931,13.422 10.629,22.595 -2.596,7.198 -9.38,11.677 -16.613,11.677 z"
           id="path434" /><path
           style="fill:#b9785f"
           d="M 388.414,348.69 H 123.586 C 55.331,348.69 0,293.358 0,225.103 v -88.276 c 0,-14.626 11.857,-26.483 26.483,-26.483 h 459.034 c 14.626,0 26.483,11.857 26.483,26.483 v 88.276 c 0,68.255 -55.331,123.587 -123.586,123.587 z"
           id="path436" /><path
           style="fill:#ffc36e"
           d="m 150.069,384 h -17.655 c -4.875,0 -8.828,-3.953 -8.828,-8.828 V 348.69 h 35.31 v 26.483 c 0.001,4.874 -3.952,8.827 -8.827,8.827 z"
           id="path438" /><circle
           style="fill:#ffd782"
           cx="141.241"
           cy="331.034"
           r="26.483"
           id="circle440" /><path
           style="fill:#ffc36e"
           d="m 379.586,384 h -17.655 c -4.875,0 -8.828,-3.953 -8.828,-8.828 V 348.69 h 35.31 v 26.483 c 10e-4,4.874 -3.952,8.827 -8.827,8.827 z"
           id="path442" /><circle
           style="fill:#ffd782"
           cx="370.759"
           cy="331.034"
           r="26.483"
           id="circle444" /><g
           id="g446">
</g><g
           id="g448">
</g><g
           id="g450">
</g><g
           id="g452">
</g><g
           id="g454">
</g><g
           id="g456">
</g><g
           id="g458">
</g><g
           id="g460">
</g><g
           id="g462">
</g><g
           id="g464">
</g><g
           id="g466">
</g><g
           id="g468">
</g><g
           id="g470">
</g><g
           id="g472">
</g><g
           id="g474">
</g></g></g></g></svg>
